<svg width="31" height="31" viewBox="0 0 31 31" fill="none" xmlns="http://www.w3.org/2000/svg">

<path d="M16.4641 20.5973C15.1069 19.2401 14.3594 17.4355 14.3594 15.516V15.2932H29.9076V15.516C29.9076 19.4783 26.6839 22.702 22.7215 22.702H21.5454C19.626 22.702 17.8214 21.9545 16.4641 20.5973Z" fill="url(#paint0_linear_34_186)"/>
<path d="M7.42138e-05 16.259C-4.07928e-08 14.3395 0.747521 12.535 2.10475 11.1777C3.46197 9.82037 5.26658 9.07292 7.18606 9.073H8.36218C10.2816 9.073 12.0862 9.82044 13.4435 11.1777C14.8007 12.535 15.5482 14.3396 15.5482 16.2591V16.4818H0L7.42138e-05 16.259Z" fill="url(#paint1_linear_34_186)"/>
<path d="M10.2434 28.7367C8.88619 27.3795 8.13867 25.5749 8.13875 23.6554L8.13867 22.4793C8.13867 20.5598 8.88612 18.7552 10.2434 17.3979C11.6007 16.0406 13.4052 15.2931 15.3247 15.2932H15.5475V30.8414H15.3247C13.4052 30.8414 11.6006 30.0941 10.2434 28.7367Z" fill="url(#paint2_linear_34_186)"/>
<path d="M14.3594 0.93335H14.5821C16.5016 0.93335 18.3062 1.6808 19.6635 3.03809C21.0207 4.39532 21.7682 6.19993 21.7682 8.11941V9.29545C21.7682 13.2579 18.5446 16.4815 14.5821 16.4815H14.3594V0.93335Z" fill="url(#paint3_linear_34_186)"/>
<defs>
<linearGradient id="paint0_linear_34_186" x1="14.51" y1="15.2932" x2="14.51" y2="22.5585" gradientUnits="userSpaceOnUse">
<stop stop-color="#FA709A"/>
<stop offset="1" stop-color="#FEE140"/>
</linearGradient>
<linearGradient id="paint1_linear_34_186" x1="0.150598" y1="9.073" x2="0.150598" y2="16.3383" gradientUnits="userSpaceOnUse">
<stop stop-color="#FA709A"/>
<stop offset="1" stop-color="#FEE140"/>
</linearGradient>
<linearGradient id="paint2_linear_34_186" x1="8.21043" y1="15.2932" x2="8.21043" y2="30.5402" gradientUnits="userSpaceOnUse">
<stop stop-color="#FA709A"/>
<stop offset="1" stop-color="#FEE140"/>
</linearGradient>
<linearGradient id="paint3_linear_34_186" x1="14.4311" y1="0.93335" x2="14.4311" y2="16.1803" gradientUnits="userSpaceOnUse">
<stop stop-color="#FA709A"/>
<stop offset="1" stop-color="#FEE140"/>
</linearGradient>
</defs>
</svg>
